<svg width="40" height="40" viewBox="0 0 40 40" fill="none" xmlns="http://www.w3.org/2000/svg">
<g filter="url(#filter0_di_108_38)">
<g filter="url(#filter1_d_108_38)">
<rect width="34.3634" height="34.3634" rx="17.1817" fill="white" fill-opacity="0.07" shape-rendering="crispEdges"/>
</g>
<g filter="url(#filter2_d_108_38)">
<path d="M22.3362 22.3361C21.3826 22.3361 20.618 23.1007 20.618 24.0543C20.618 24.51 20.7991 24.947 21.1213 25.2692C21.4435 25.5915 21.8805 25.7725 22.3362 25.7725C22.7919 25.7725 23.2289 25.5915 23.5511 25.2692C23.8734 24.947 24.0544 24.51 24.0544 24.0543C24.0544 23.5986 23.8734 23.1616 23.5511 22.8394C23.2289 22.5172 22.7919 22.3361 22.3362 22.3361ZM8.59085 8.59079V10.309H10.309L13.4017 16.8294L12.2334 18.9342C12.1045 19.1747 12.0272 19.4582 12.0272 19.7589C12.0272 20.2146 12.2082 20.6516 12.5304 20.9738C12.8527 21.296 13.2897 21.4771 13.7454 21.4771H24.0544V19.7589H14.1062C14.0492 19.7589 13.9946 19.7363 13.9543 19.696C13.914 19.6557 13.8914 19.6011 13.8914 19.5441C13.8914 19.5012 13.9 19.4668 13.9172 19.441L14.6904 18.0407H21.0905C21.7348 18.0407 22.3018 17.6799 22.5939 17.1559L25.6695 11.5976C25.7296 11.4601 25.7725 11.3141 25.7725 11.168C25.7725 10.9402 25.682 10.7217 25.5209 10.5606C25.3598 10.3995 25.1413 10.309 24.9135 10.309H12.2076L11.4001 8.59079M13.7454 22.3361C12.7918 22.3361 12.0272 23.1007 12.0272 24.0543C12.0272 24.51 12.2082 24.947 12.5304 25.2692C12.8527 25.5915 13.2897 25.7725 13.7454 25.7725C14.201 25.7725 14.6381 25.5915 14.9603 25.2692C15.2825 24.947 15.4635 24.51 15.4635 24.0543C15.4635 23.5986 15.2825 23.1616 14.9603 22.8394C14.6381 22.5172 14.201 22.3361 13.7454 22.3361Z" fill="white"/>
</g>
</g>
<defs>
<filter id="filter0_di_108_38" x="0" y="0" width="39.1425" height="39.1425" filterUnits="userSpaceOnUse" color-interpolation-filters="sRGB">
<feFlood flood-opacity="0" result="BackgroundImageFix"/>
<feColorMatrix in="SourceAlpha" type="matrix" values="0 0 0 0 0 0 0 0 0 0 0 0 0 0 0 0 0 0 127 0" result="hardAlpha"/>
<feOffset dx="2.38954" dy="2.38954"/>
<feGaussianBlur stdDeviation="1.19477"/>
<feComposite in2="hardAlpha" operator="out"/>
<feColorMatrix type="matrix" values="0 0 0 0 0 0 0 0 0 0 0 0 0 0 0 0 0 0 0.25 0"/>
<feBlend mode="normal" in2="BackgroundImageFix" result="effect1_dropShadow_108_38"/>
<feBlend mode="normal" in="SourceGraphic" in2="effect1_dropShadow_108_38" result="shape"/>
<feColorMatrix in="SourceAlpha" type="matrix" values="0 0 0 0 0 0 0 0 0 0 0 0 0 0 0 0 0 0 127 0" result="hardAlpha"/>
<feOffset dx="0.597386" dy="0.597386"/>
<feGaussianBlur stdDeviation="0.597386"/>
<feComposite in2="hardAlpha" operator="arithmetic" k2="-1" k3="1"/>
<feColorMatrix type="matrix" values="0 0 0 0 1 0 0 0 0 1 0 0 0 0 1 0 0 0 0.25 0"/>
<feBlend mode="normal" in2="shape" result="effect2_innerShadow_108_38"/>
</filter>
<filter id="filter1_d_108_38" x="0" y="0" width="36.1556" height="36.1556" filterUnits="userSpaceOnUse" color-interpolation-filters="sRGB">
<feFlood flood-opacity="0" result="BackgroundImageFix"/>
<feColorMatrix in="SourceAlpha" type="matrix" values="0 0 0 0 0 0 0 0 0 0 0 0 0 0 0 0 0 0 127 0" result="hardAlpha"/>
<feOffset dx="1.19477" dy="1.19477"/>
<feGaussianBlur stdDeviation="0.298693"/>
<feComposite in2="hardAlpha" operator="out"/>
<feColorMatrix type="matrix" values="0 0 0 0 0 0 0 0 0 0 0 0 0 0 0 0 0 0 0.25 0"/>
<feBlend mode="normal" in2="BackgroundImageFix" result="effect1_dropShadow_108_38"/>
<feBlend mode="normal" in="SourceGraphic" in2="effect1_dropShadow_108_38" result="shape"/>
</filter>
<filter id="filter2_d_108_38" x="8.59085" y="8.59079" width="18.9739" height="18.9739" filterUnits="userSpaceOnUse" color-interpolation-filters="sRGB">
<feFlood flood-opacity="0" result="BackgroundImageFix"/>
<feColorMatrix in="SourceAlpha" type="matrix" values="0 0 0 0 0 0 0 0 0 0 0 0 0 0 0 0 0 0 127 0" result="hardAlpha"/>
<feOffset dx="1.19477" dy="1.19477"/>
<feGaussianBlur stdDeviation="0.298693"/>
<feComposite in2="hardAlpha" operator="out"/>
<feColorMatrix type="matrix" values="0 0 0 0 0 0 0 0 0 0 0 0 0 0 0 0 0 0 0.25 0"/>
<feBlend mode="normal" in2="BackgroundImageFix" result="effect1_dropShadow_108_38"/>
<feBlend mode="normal" in="SourceGraphic" in2="effect1_dropShadow_108_38" result="shape"/>
</filter>
</defs>
</svg>
