<svg width="58" height="58" viewBox="0 0 58 58" fill="none" xmlns="http://www.w3.org/2000/svg">
<g filter="url(#filter0_di_0_70)">
<path d="M38.7627 19.5579C36.9411 18.7088 34.9688 18.0924 32.9144 17.7363C32.8963 17.7358 32.8784 17.7391 32.8619 17.7462C32.8453 17.7533 32.8305 17.764 32.8185 17.7774C32.572 18.2294 32.2843 18.8183 32.0926 19.2703C29.9135 18.9416 27.6974 18.9416 25.5184 19.2703C25.3266 18.8046 25.039 18.2294 24.7788 17.7774C24.7651 17.75 24.724 17.7363 24.6829 17.7363C22.6284 18.0924 20.6699 18.7088 18.8346 19.5579C18.8209 19.5579 18.8072 19.5716 18.7935 19.5853C15.0681 25.1597 14.0408 30.5835 14.5476 35.9524C14.5476 35.9798 14.5613 36.0072 14.5887 36.0209C17.054 37.8288 19.4235 38.9245 21.7656 39.6504C21.8067 39.6641 21.8477 39.6504 21.8614 39.623C22.4093 38.8697 22.9024 38.0754 23.3269 37.2399C23.3543 37.1851 23.3269 37.1303 23.2722 37.1166C22.4915 36.8153 21.7519 36.4592 21.026 36.0483C20.9712 36.0209 20.9712 35.9387 21.0123 35.8976C21.1629 35.7881 21.3136 35.6648 21.4642 35.5552C21.4916 35.5278 21.5327 35.5278 21.5601 35.5415C26.2716 37.6919 31.353 37.6919 36.0097 35.5415C36.0371 35.5278 36.0782 35.5278 36.1056 35.5552C36.2563 35.6785 36.4069 35.7881 36.5576 35.9113C36.6124 35.9524 36.6124 36.0346 36.5439 36.062C35.8317 36.4866 35.0784 36.829 34.2977 37.1303C34.2429 37.144 34.2292 37.2125 34.2429 37.2536C34.6812 38.0891 35.1743 38.8834 35.7084 39.6367C35.7495 39.6504 35.7906 39.6641 35.8317 39.6504C38.1874 38.9245 40.5569 37.8288 43.0222 36.0209C43.0496 36.0072 43.0633 35.9798 43.0633 35.9524C43.666 29.748 42.0635 24.3653 38.8175 19.5853C38.8038 19.5716 38.7901 19.5579 38.7627 19.5579ZM24.0392 32.679C22.6284 32.679 21.4505 31.3779 21.4505 29.7754C21.4505 28.1729 22.601 26.8718 24.0392 26.8718C25.491 26.8718 26.6414 28.1866 26.6278 29.7754C26.6278 31.3779 25.4773 32.679 24.0392 32.679ZM33.5855 32.679C32.1748 32.679 30.9969 31.3779 30.9969 29.7754C30.9969 28.1729 32.1474 26.8718 33.5855 26.8718C35.0373 26.8718 36.1878 28.1866 36.1741 29.7754C36.1741 31.3779 35.0373 32.679 33.5855 32.679Z" fill="white"/>
</g>
<defs>
<filter id="filter0_di_0_70" x="0.0458679" y="0" width="65.5229" height="65.5229" filterUnits="userSpaceOnUse" color-interpolation-filters="sRGB">
<feFlood flood-opacity="0" result="BackgroundImageFix"/>
<feColorMatrix in="SourceAlpha" type="matrix" values="0 0 0 0 0 0 0 0 0 0 0 0 0 0 0 0 0 0 127 0" result="hardAlpha"/>
<feOffset dx="4" dy="4"/>
<feGaussianBlur stdDeviation="2"/>
<feComposite in2="hardAlpha" operator="out"/>
<feColorMatrix type="matrix" values="0 0 0 0 0 0 0 0 0 0 0 0 0 0 0 0 0 0 0.25 0"/>
<feBlend mode="normal" in2="BackgroundImageFix" result="effect1_dropShadow_0_70"/>
<feBlend mode="normal" in="SourceGraphic" in2="effect1_dropShadow_0_70" result="shape"/>
<feColorMatrix in="SourceAlpha" type="matrix" values="0 0 0 0 0 0 0 0 0 0 0 0 0 0 0 0 0 0 127 0" result="hardAlpha"/>
<feOffset dx="1" dy="1"/>
<feGaussianBlur stdDeviation="1"/>
<feComposite in2="hardAlpha" operator="arithmetic" k2="-1" k3="1"/>
<feColorMatrix type="matrix" values="0 0 0 0 1 0 0 0 0 1 0 0 0 0 1 0 0 0 0.25 0"/>
<feBlend mode="normal" in2="shape" result="effect2_innerShadow_0_70"/>
</filter>
</defs>
</svg>
