<svg width="59" height="58" viewBox="0 0 59 58" fill="none" xmlns="http://www.w3.org/2000/svg">
<g filter="url(#filter0_di_0_66)">
<g filter="url(#filter1_d_0_66)">
<path d="M27.0907 30.9553C27.7286 31.5621 27.7286 32.5579 27.0907 33.1647C26.4839 33.7715 25.4881 33.7715 24.8813 33.1647C23.424 31.7052 22.6055 29.727 22.6055 27.6646C22.6055 25.6021 23.424 23.6239 24.8813 22.1644L30.3892 16.6565C31.8487 15.1993 33.8269 14.3807 35.8893 14.3807C37.9518 14.3807 39.93 15.1993 41.3895 16.6565C42.8467 18.116 43.6653 20.0942 43.6653 22.1567C43.6653 24.2191 42.8467 26.1973 41.3895 27.6568L39.0712 29.9751C39.0867 28.6992 38.8844 27.4234 38.4488 26.2098L39.1801 25.463C39.6163 25.0315 39.9625 24.5178 40.1988 23.9516C40.4352 23.3854 40.5569 22.778 40.5569 22.1644C40.5569 21.5509 40.4352 20.9435 40.1988 20.3773C39.9625 19.8111 39.6163 19.2974 39.1801 18.8659C38.7486 18.4297 38.2349 18.0835 37.6687 17.8472C37.1025 17.6108 36.4951 17.4891 35.8816 17.4891C35.268 17.4891 34.6606 17.6108 34.0944 17.8472C33.5282 18.0835 33.0145 18.4297 32.583 18.8659L27.0907 24.3583C26.6545 24.7897 26.3083 25.3034 26.0719 25.8696C25.8356 26.4358 25.7139 27.0433 25.7139 27.6568C25.7139 28.2703 25.8356 28.8777 26.0719 29.4439C26.3083 30.0101 26.6545 30.5238 27.0907 30.9553ZM31.4783 24.3583C32.0852 23.7515 33.0809 23.7515 33.6877 24.3583C35.145 25.8177 35.9635 27.7959 35.9635 29.8584C35.9635 31.9209 35.145 33.899 33.6877 35.3585L28.1798 40.8664C26.7204 42.3237 24.7422 43.1422 22.6797 43.1422C20.6172 43.1422 18.6391 42.3237 17.1796 40.8664C15.7223 39.4069 14.9038 37.4288 14.9038 35.3663C14.9038 33.3038 15.7223 31.3256 17.1796 29.8662L19.4979 27.5479C19.4823 28.8237 19.6846 30.0995 20.1203 31.3287L19.389 32.06C18.9528 32.4915 18.6065 33.0052 18.3702 33.5713C18.1339 34.1375 18.0122 34.745 18.0122 35.3585C18.0122 35.972 18.1339 36.5795 18.3702 37.1457C18.6065 37.7118 18.9528 38.2255 19.389 38.657C19.8205 39.0932 20.3342 39.4395 20.9003 39.6758C21.4665 39.9121 22.074 40.0338 22.6875 40.0338C23.301 40.0338 23.9085 39.9121 24.4747 39.6758C25.0408 39.4395 25.5545 39.0932 25.986 38.657L31.4783 33.1647C31.9145 32.7332 32.2608 32.2195 32.4971 31.6533C32.7335 31.0871 32.8551 30.4797 32.8551 29.8662C32.8551 29.2526 32.7335 28.6452 32.4971 28.079C32.2608 27.5128 31.9145 26.9991 31.4783 26.5676C31.3272 26.426 31.2068 26.255 31.1244 26.0649C31.0421 25.8749 30.9996 25.67 30.9996 25.463C30.9996 25.2559 31.0421 25.051 31.1244 24.861C31.2068 24.671 31.3272 24.4999 31.4783 24.3583Z" fill="white"/>
</g>
</g>
<defs>
<filter id="filter0_di_0_66" x="0.522934" y="0" width="65.5229" height="65.5229" filterUnits="userSpaceOnUse" color-interpolation-filters="sRGB">
<feFlood flood-opacity="0" result="BackgroundImageFix"/>
<feColorMatrix in="SourceAlpha" type="matrix" values="0 0 0 0 0 0 0 0 0 0 0 0 0 0 0 0 0 0 127 0" result="hardAlpha"/>
<feOffset dx="4" dy="4"/>
<feGaussianBlur stdDeviation="2"/>
<feComposite in2="hardAlpha" operator="out"/>
<feColorMatrix type="matrix" values="0 0 0 0 0 0 0 0 0 0 0 0 0 0 0 0 0 0 0.25 0"/>
<feBlend mode="normal" in2="BackgroundImageFix" result="effect1_dropShadow_0_66"/>
<feBlend mode="normal" in="SourceGraphic" in2="effect1_dropShadow_0_66" result="shape"/>
<feColorMatrix in="SourceAlpha" type="matrix" values="0 0 0 0 0 0 0 0 0 0 0 0 0 0 0 0 0 0 127 0" result="hardAlpha"/>
<feOffset dx="1" dy="1"/>
<feGaussianBlur stdDeviation="1"/>
<feComposite in2="hardAlpha" operator="arithmetic" k2="-1" k3="1"/>
<feColorMatrix type="matrix" values="0 0 0 0 1 0 0 0 0 1 0 0 0 0 1 0 0 0 0.25 0"/>
<feBlend mode="normal" in2="shape" result="effect2_innerShadow_0_66"/>
</filter>
<filter id="filter1_d_0_66" x="14.9038" y="14.3807" width="31.7615" height="31.7615" filterUnits="userSpaceOnUse" color-interpolation-filters="sRGB">
<feFlood flood-opacity="0" result="BackgroundImageFix"/>
<feColorMatrix in="SourceAlpha" type="matrix" values="0 0 0 0 0 0 0 0 0 0 0 0 0 0 0 0 0 0 127 0" result="hardAlpha"/>
<feOffset dx="2" dy="2"/>
<feGaussianBlur stdDeviation="0.5"/>
<feComposite in2="hardAlpha" operator="out"/>
<feColorMatrix type="matrix" values="0 0 0 0 0 0 0 0 0 0 0 0 0 0 0 0 0 0 0.25 0"/>
<feBlend mode="normal" in2="BackgroundImageFix" result="effect1_dropShadow_0_66"/>
<feBlend mode="normal" in="SourceGraphic" in2="effect1_dropShadow_0_66" result="shape"/>
</filter>
</defs>
</svg>
