<svg width="677" height="425" viewBox="0 0 677 425" fill="none" xmlns="http://www.w3.org/2000/svg">
<g opacity="0.2">
<rect width="0.903872" height="424.82" transform="matrix(-1 0 0 1 70.502 0)" fill="url(#paint0_linear_0_27)"/>
<rect width="0.903864" height="677" transform="matrix(1.19249e-08 -1 -1 -1.19249e-08 677 78.6368)" fill="url(#paint1_linear_0_27)"/>
<rect width="0.903864" height="677" transform="matrix(1.19249e-08 -1 -1 -1.19249e-08 677 139.196)" fill="url(#paint2_linear_0_27)"/>
<rect width="0.903864" height="677" transform="matrix(1.19249e-08 -1 -1 -1.19249e-08 677 199.756)" fill="url(#paint3_linear_0_27)"/>
<rect width="0.903864" height="677" transform="matrix(1.19249e-08 -1 -1 -1.19249e-08 677 260.315)" fill="url(#paint4_linear_0_27)"/>
<rect width="0.903864" height="677" transform="matrix(1.19249e-08 -1 -1 -1.19249e-08 677 320.875)" fill="url(#paint5_linear_0_27)"/>
<rect width="0.903864" height="677" transform="matrix(1.19249e-08 -1 -1 -1.19249e-08 677 381.434)" fill="url(#paint6_linear_0_27)"/>
<rect width="0.903872" height="424.82" transform="matrix(-1 0 0 1 133.773 0)" fill="url(#paint7_linear_0_27)"/>
<rect width="0.903872" height="424.82" transform="matrix(-1 0 0 1 197.044 0)" fill="url(#paint8_linear_0_27)"/>
<rect width="0.903872" height="424.82" transform="matrix(-1 0 0 1 260.315 0)" fill="url(#paint9_linear_0_27)"/>
<rect width="0.903872" height="424.82" transform="matrix(-1 0 0 1 323.586 0)" fill="url(#paint10_linear_0_27)"/>
<rect width="0.903872" height="424.82" transform="matrix(-1 0 0 1 386.857 0)" fill="url(#paint11_linear_0_27)"/>
<rect width="0.903872" height="424.82" transform="matrix(-1 0 0 1 450.128 0)" fill="url(#paint12_linear_0_27)"/>
<rect width="0.903872" height="424.82" transform="matrix(-1 0 0 1 513.399 0)" fill="url(#paint13_linear_0_27)"/>
<rect width="0.903872" height="424.82" transform="matrix(-1 0 0 1 576.67 0)" fill="url(#paint14_linear_0_27)"/>
</g>
<defs>
<linearGradient id="paint0_linear_0_27" x1="0.451936" y1="0" x2="0.451936" y2="424.82" gradientUnits="userSpaceOnUse">
<stop stop-color="#D9D9D9" stop-opacity="0"/>
<stop offset="0.558629" stop-color="#D9D9D9"/>
<stop offset="1" stop-color="#D9D9D9" stop-opacity="0"/>
</linearGradient>
<linearGradient id="paint1_linear_0_27" x1="0.451932" y1="0" x2="0.451932" y2="677" gradientUnits="userSpaceOnUse">
<stop stop-color="#D9D9D9" stop-opacity="0"/>
<stop offset="0.558629" stop-color="#D9D9D9"/>
<stop offset="1" stop-color="#D9D9D9" stop-opacity="0"/>
</linearGradient>
<linearGradient id="paint2_linear_0_27" x1="0.451932" y1="0" x2="0.451932" y2="677" gradientUnits="userSpaceOnUse">
<stop stop-color="#D9D9D9" stop-opacity="0"/>
<stop offset="0.558629" stop-color="#D9D9D9"/>
<stop offset="1" stop-color="#D9D9D9" stop-opacity="0"/>
</linearGradient>
<linearGradient id="paint3_linear_0_27" x1="0.451932" y1="0" x2="0.451932" y2="677" gradientUnits="userSpaceOnUse">
<stop stop-color="#D9D9D9" stop-opacity="0"/>
<stop offset="0.558629" stop-color="#D9D9D9"/>
<stop offset="1" stop-color="#D9D9D9" stop-opacity="0"/>
</linearGradient>
<linearGradient id="paint4_linear_0_27" x1="0.451932" y1="0" x2="0.451932" y2="677" gradientUnits="userSpaceOnUse">
<stop stop-color="#D9D9D9" stop-opacity="0"/>
<stop offset="0.558629" stop-color="#D9D9D9"/>
<stop offset="1" stop-color="#D9D9D9" stop-opacity="0"/>
</linearGradient>
<linearGradient id="paint5_linear_0_27" x1="0.451932" y1="0" x2="0.451932" y2="677" gradientUnits="userSpaceOnUse">
<stop stop-color="#D9D9D9" stop-opacity="0"/>
<stop offset="0.558629" stop-color="#D9D9D9"/>
<stop offset="1" stop-color="#D9D9D9" stop-opacity="0"/>
</linearGradient>
<linearGradient id="paint6_linear_0_27" x1="0.451932" y1="0" x2="0.451932" y2="677" gradientUnits="userSpaceOnUse">
<stop stop-color="#D9D9D9" stop-opacity="0"/>
<stop offset="0.558629" stop-color="#D9D9D9"/>
<stop offset="1" stop-color="#D9D9D9" stop-opacity="0"/>
</linearGradient>
<linearGradient id="paint7_linear_0_27" x1="0.451936" y1="0" x2="0.451936" y2="424.82" gradientUnits="userSpaceOnUse">
<stop stop-color="#D9D9D9" stop-opacity="0"/>
<stop offset="0.558629" stop-color="#D9D9D9"/>
<stop offset="1" stop-color="#D9D9D9" stop-opacity="0"/>
</linearGradient>
<linearGradient id="paint8_linear_0_27" x1="0.451936" y1="0" x2="0.451936" y2="424.82" gradientUnits="userSpaceOnUse">
<stop stop-color="#D9D9D9" stop-opacity="0"/>
<stop offset="0.558629" stop-color="#D9D9D9"/>
<stop offset="1" stop-color="#D9D9D9" stop-opacity="0"/>
</linearGradient>
<linearGradient id="paint9_linear_0_27" x1="0.451936" y1="0" x2="0.451936" y2="424.82" gradientUnits="userSpaceOnUse">
<stop stop-color="#D9D9D9" stop-opacity="0"/>
<stop offset="0.558629" stop-color="#D9D9D9"/>
<stop offset="1" stop-color="#D9D9D9" stop-opacity="0"/>
</linearGradient>
<linearGradient id="paint10_linear_0_27" x1="0.451936" y1="0" x2="0.451936" y2="424.82" gradientUnits="userSpaceOnUse">
<stop stop-color="#D9D9D9" stop-opacity="0"/>
<stop offset="0.558629" stop-color="#D9D9D9"/>
<stop offset="1" stop-color="#D9D9D9" stop-opacity="0"/>
</linearGradient>
<linearGradient id="paint11_linear_0_27" x1="0.451936" y1="0" x2="0.451936" y2="424.82" gradientUnits="userSpaceOnUse">
<stop stop-color="#D9D9D9" stop-opacity="0"/>
<stop offset="0.558629" stop-color="#D9D9D9"/>
<stop offset="1" stop-color="#D9D9D9" stop-opacity="0"/>
</linearGradient>
<linearGradient id="paint12_linear_0_27" x1="0.451936" y1="0" x2="0.451936" y2="424.82" gradientUnits="userSpaceOnUse">
<stop stop-color="#D9D9D9" stop-opacity="0"/>
<stop offset="0.558629" stop-color="#D9D9D9"/>
<stop offset="1" stop-color="#D9D9D9" stop-opacity="0"/>
</linearGradient>
<linearGradient id="paint13_linear_0_27" x1="0.451936" y1="0" x2="0.451936" y2="424.82" gradientUnits="userSpaceOnUse">
<stop stop-color="#D9D9D9" stop-opacity="0"/>
<stop offset="0.558629" stop-color="#D9D9D9"/>
<stop offset="1" stop-color="#D9D9D9" stop-opacity="0"/>
</linearGradient>
<linearGradient id="paint14_linear_0_27" x1="0.451936" y1="0" x2="0.451936" y2="424.82" gradientUnits="userSpaceOnUse">
<stop stop-color="#D9D9D9" stop-opacity="0"/>
<stop offset="0.558629" stop-color="#D9D9D9"/>
<stop offset="1" stop-color="#D9D9D9" stop-opacity="0"/>
</linearGradient>
</defs>
</svg>
