<svg width="58" height="58" viewBox="0 0 58 58" fill="none" xmlns="http://www.w3.org/2000/svg">
<g filter="url(#filter0_di_0_76)">
<g filter="url(#filter1_d_0_76)">
<path d="M43.1511 24.3118C43.1511 25.1871 42.8471 25.9287 42.2392 26.5366C41.6314 27.1445 40.8898 27.4484 40.0144 27.4484C39.1877 27.4484 38.4704 27.1445 37.8625 26.5366C37.2546 25.9287 36.9507 25.1871 36.9507 24.3118C36.9507 23.4851 37.2546 22.7678 37.8625 22.1599C38.4704 21.552 39.1877 21.248 40.0144 21.248C40.8898 21.248 41.6314 21.552 42.2392 22.1599C42.8471 22.7678 43.1511 23.4851 43.1511 24.3118ZM41.911 29.5639L38.1178 32.7735C38.1664 32.968 38.1908 33.2355 38.1908 33.5759C38.1908 34.9375 37.7045 36.1047 36.7318 37.0773C35.7592 38.0499 34.5921 38.5362 33.2304 38.5362C32.0633 38.5362 31.0299 38.1715 30.1303 37.442C29.2306 36.7125 28.6592 35.7886 28.416 34.6701L19.079 31.5334C18.2523 32.117 17.3769 32.4087 16.4529 32.4087C15.2372 32.4087 14.2038 31.9832 13.3527 31.1322C12.5017 30.2812 12.0762 29.2478 12.0762 28.032C12.0762 26.8162 12.5017 25.7828 13.3527 24.9318C14.2038 24.0808 15.2372 23.6553 16.4529 23.6553C17.4742 23.6553 18.3738 23.9835 19.1519 24.64C19.93 25.2965 20.4406 26.1111 20.6838 27.0837L29.6561 30.0745C30.6287 29.1505 31.7715 28.6642 33.0846 28.6156L34.4705 24.5306V24.3118C34.4705 22.7556 35.0176 21.4304 36.1118 20.3362C37.206 19.242 38.5312 18.6949 40.0873 18.6949C41.5949 18.6949 42.8958 19.242 43.9899 20.3362C45.0841 21.4304 45.6312 22.7556 45.6312 24.3118C45.6312 25.5275 45.2908 26.6096 44.61 27.5579C43.9292 28.5062 43.0295 29.1748 41.911 29.5639ZM19.1519 26.5731C18.5684 25.5032 17.693 24.9683 16.5259 24.9683C15.6505 24.9683 14.9211 25.2722 14.3375 25.8801C13.7539 26.488 13.4621 27.2053 13.4621 28.032C13.4621 28.8587 13.7539 29.576 14.3375 30.1839C14.9211 30.7918 15.6505 31.0957 16.5259 31.0957C16.7204 31.0957 17.0122 31.0471 17.4012 30.9498L15.9423 30.4392C15.3587 30.1474 14.9697 29.6854 14.7752 29.0532C14.5807 28.421 14.6293 27.8132 14.9211 27.2296C15.2615 26.646 15.7478 26.257 16.38 26.0625C17.0122 25.8679 17.6201 25.9166 18.2036 26.2084L19.1519 26.5731ZM35.7106 24.3118C35.7106 25.5275 36.124 26.5609 36.9507 27.412C37.7774 28.263 38.7986 28.6885 40.0144 28.6885C41.2302 28.6885 42.2636 28.263 43.1146 27.412C43.9656 26.5609 44.3911 25.5275 44.3911 24.3118C44.3911 23.096 43.9656 22.0748 43.1146 21.248C42.2636 20.4213 41.2302 20.008 40.0144 20.008C38.7986 20.008 37.7774 20.4213 36.9507 21.248C36.124 22.0748 35.7106 23.096 35.7106 24.3118ZM35.7835 34.0136C35.7835 33.0896 35.4553 32.3115 34.7988 31.6793C34.1423 31.0471 33.352 30.731 32.428 30.731C32.0876 30.731 31.8445 30.7553 31.6986 30.8039L33.5952 31.3875C34.1787 31.7279 34.5678 32.2142 34.7623 32.8464C34.9568 33.4786 34.8839 34.0865 34.5435 34.6701C34.2031 35.2536 33.7168 35.6427 33.0846 35.8372C32.4524 36.0317 31.8445 35.9588 31.2609 35.6184L29.2914 34.9618C29.7777 36.518 30.8232 37.2961 32.428 37.2961C33.352 37.2961 34.1423 36.98 34.7988 36.3478C35.4553 35.7156 35.7835 34.9375 35.7835 34.0136Z" fill="white"/>
</g>
</g>
<defs>
<filter id="filter0_di_0_76" x="0.0917358" y="0" width="65.5229" height="65.5229" filterUnits="userSpaceOnUse" color-interpolation-filters="sRGB">
<feFlood flood-opacity="0" result="BackgroundImageFix"/>
<feColorMatrix in="SourceAlpha" type="matrix" values="0 0 0 0 0 0 0 0 0 0 0 0 0 0 0 0 0 0 127 0" result="hardAlpha"/>
<feOffset dx="4" dy="4"/>
<feGaussianBlur stdDeviation="2"/>
<feComposite in2="hardAlpha" operator="out"/>
<feColorMatrix type="matrix" values="0 0 0 0 0 0 0 0 0 0 0 0 0 0 0 0 0 0 0.25 0"/>
<feBlend mode="normal" in2="BackgroundImageFix" result="effect1_dropShadow_0_76"/>
<feBlend mode="normal" in="SourceGraphic" in2="effect1_dropShadow_0_76" result="shape"/>
<feColorMatrix in="SourceAlpha" type="matrix" values="0 0 0 0 0 0 0 0 0 0 0 0 0 0 0 0 0 0 127 0" result="hardAlpha"/>
<feOffset dx="1" dy="1"/>
<feGaussianBlur stdDeviation="1"/>
<feComposite in2="hardAlpha" operator="arithmetic" k2="-1" k3="1"/>
<feColorMatrix type="matrix" values="0 0 0 0 1 0 0 0 0 1 0 0 0 0 1 0 0 0 0.25 0"/>
<feBlend mode="normal" in2="shape" result="effect2_innerShadow_0_76"/>
</filter>
<filter id="filter1_d_0_76" x="12.0762" y="18.6949" width="36.555" height="22.8412" filterUnits="userSpaceOnUse" color-interpolation-filters="sRGB">
<feFlood flood-opacity="0" result="BackgroundImageFix"/>
<feColorMatrix in="SourceAlpha" type="matrix" values="0 0 0 0 0 0 0 0 0 0 0 0 0 0 0 0 0 0 127 0" result="hardAlpha"/>
<feOffset dx="2" dy="2"/>
<feGaussianBlur stdDeviation="0.5"/>
<feComposite in2="hardAlpha" operator="out"/>
<feColorMatrix type="matrix" values="0 0 0 0 0 0 0 0 0 0 0 0 0 0 0 0 0 0 0.25 0"/>
<feBlend mode="normal" in2="BackgroundImageFix" result="effect1_dropShadow_0_76"/>
<feBlend mode="normal" in="SourceGraphic" in2="effect1_dropShadow_0_76" result="shape"/>
</filter>
</defs>
</svg>
